<svg xmlns="http://www.w3.org/2000/svg" xmlns:xlink="http://www.w3.org/1999/xlink" width="75" height="56" viewBox="0 0 75 56">
  <defs>
    <filter id="Rectangle_38" x="0" y="0" width="75" height="56" filterUnits="userSpaceOnUse">
      <feOffset dy="3" input="SourceAlpha"/>
      <feGaussianBlur stdDeviation="3" result="blur"/>
      <feFlood flood-opacity="0.2"/>
      <feComposite operator="in" in2="blur"/>
      <feComposite in="SourceGraphic"/>
    </filter>
  </defs>
  <g id="Change" transform="translate(-183 -7)">
    <g transform="matrix(1, 0, 0, 1, 183, 7)" filter="url(#Rectangle_38)">
      <rect id="Rectangle_38-2" data-name="Rectangle 38" width="57" height="38" rx="14" transform="translate(9 6)" fill="#ffca83"/>
    </g>
    <g id="comment" transform="translate(207 22.332)">
      <path id="Path_1" data-name="Path 1" d="M22.5-1.332H3.587A3.59,3.59,0,0,0,0,2.254V13.829a3.59,3.59,0,0,0,3.574,3.586v5.252l7.548-5.252H22.5a3.59,3.59,0,0,0,3.586-3.586V2.254A3.59,3.59,0,0,0,22.5-1.332Zm2.058,15.161A2.06,2.06,0,0,1,22.5,15.887H10.643L5.1,19.742V15.886H3.587a2.06,2.06,0,0,1-2.058-2.058V2.254A2.06,2.06,0,0,1,3.587.2H22.5a2.06,2.06,0,0,1,2.058,2.058Zm0,0"/>
      <path id="Path_2" data-name="Path 2" d="M171.293,131.172h12.123V132.7H171.293Zm0,0" transform="translate(-164.311 -127.103)"/>
      <path id="Path_3" data-name="Path 3" d="M171.293,211.172h12.123V212.7H171.293Zm0,0" transform="translate(-164.311 -203.842)"/>
      <path id="Path_4" data-name="Path 4" d="M171.293,291.172h12.123V292.7H171.293Zm0,0" transform="translate(-164.311 -280.582)"/>
    </g>
  </g>
</svg>
