<svg xmlns="http://www.w3.org/2000/svg" width="89.299" height="82.157" viewBox="0 0 89.299 82.157">
  <g id="comment" transform="translate(-0.001 1.332)">
    <path id="Path_1" data-name="Path 1" d="M77.023-1.332H12.278A12.29,12.29,0,0,0,0,10.945V50.568A12.291,12.291,0,0,0,12.234,62.845v17.98l25.84-17.98H77.023A12.291,12.291,0,0,0,89.3,50.568V10.945A12.29,12.29,0,0,0,77.023-1.332Zm7.045,51.9a7.053,7.053,0,0,1-7.045,7.045H36.432L17.466,70.81v-13.2H12.278a7.053,7.053,0,0,1-7.045-7.045V10.945A7.052,7.052,0,0,1,12.278,3.9H77.023a7.052,7.052,0,0,1,7.045,7.045Zm0,0" fill="#ffca83"/>
    <path id="Path_2" data-name="Path 2" d="M171.293,131.172h41.5V136.4h-41.5Zm0,0" transform="translate(-147.392 -114.016)" fill="#ffca83"/>
    <path id="Path_3" data-name="Path 3" d="M171.293,211.172h41.5V216.4h-41.5Zm0,0" transform="translate(-147.392 -182.853)" fill="#ffca83"/>
    <path id="Path_4" data-name="Path 4" d="M171.293,291.172h41.5V296.4h-41.5Zm0,0" transform="translate(-147.392 -251.691)" fill="#ffca83"/>
  </g>
</svg>
