<svg xmlns="http://www.w3.org/2000/svg" width="87.37" height="87.364" viewBox="0 0 87.37 87.364">
  <g id="close" transform="translate(0 -0.016)">
    <g id="Group_808" data-name="Group 808">
      <path id="Path_370" data-name="Path 370" d="M53.308,43.7,85.974,11.03a4.787,4.787,0,0,0,0-6.757L83.112,1.411a4.791,4.791,0,0,0-6.759,0L43.686,34.077,11.019,1.411a4.788,4.788,0,0,0-6.757,0L1.4,4.273a4.782,4.782,0,0,0,0,6.757L34.065,43.7,1.4,76.365a4.792,4.792,0,0,0,0,6.759l2.863,2.862a4.788,4.788,0,0,0,6.757,0L43.686,53.319,76.352,85.985a4.741,4.741,0,0,0,3.378,1.4h0a4.742,4.742,0,0,0,3.379-1.4l2.863-2.862a4.791,4.791,0,0,0,0-6.758Z" fill="#db2626"/>
    </g>
  </g>
</svg>
