<svg xmlns="http://www.w3.org/2000/svg" width="490.668" height="469.336" viewBox="0 0 490.668 469.336">
  <g id="logout_1_" data-name="logout (1)" transform="translate(0 -0.332)">
    <path id="Path_370" data-name="Path 370" d="M474.668,251H165.332a16,16,0,1,1,0-32H474.668a16,16,0,0,1,0,32Zm0,0" fill="#fff"/>
    <path id="Path_371" data-name="Path 371" d="M250.668,336.332a15.875,15.875,0,0,1-11.309-4.691l-85.332-85.332a16.008,16.008,0,0,1,0-22.637l85.332-85.332A16.005,16.005,0,0,1,262,160.973L187.969,235,262,309.027a15.988,15.988,0,0,1-11.328,27.3Zm0,0" fill="#fff"/>
    <path id="Path_372" data-name="Path 372" d="M234.668,469.668C105.281,469.668,0,364.387,0,235S105.281.332,234.668.332c97.086,0,182.8,58.41,218.41,148.824A16,16,0,1,1,423.3,160.867C392.555,82.785,318.508,32.332,234.668,32.332,122.922,32.332,32,123.258,32,235s90.922,202.668,202.668,202.668c83.84,0,157.887-50.453,188.629-128.512a16,16,0,1,1,29.781,11.711c-35.605,90.391-121.324,148.8-218.41,148.8Zm0,0" fill="#fff"/>
  </g>
</svg>
