<svg xmlns="http://www.w3.org/2000/svg" width="38.986" height="38.986" viewBox="0 0 38.986 38.986">
  <path id="message" d="M19.493,0A19.5,19.5,0,0,0,2.585,29.2L.073,37A1.523,1.523,0,0,0,1.99,38.913l7.8-2.512A19.494,19.494,0,1,0,19.493,0Zm0,35.94a16.4,16.4,0,0,1-8.706-2.492,1.524,1.524,0,0,0-1.274-.158L3.883,35.1,5.7,29.473A1.524,1.524,0,0,0,5.537,28.2,16.448,16.448,0,1,1,19.493,35.94Zm1.9-16.447a1.9,1.9,0,1,1-1.9-1.9A1.9,1.9,0,0,1,21.4,19.493Zm7.615,0a1.9,1.9,0,1,1-1.9-1.9A1.9,1.9,0,0,1,29.011,19.493Zm-15.229,0a1.9,1.9,0,1,1-1.9-1.9A1.9,1.9,0,0,1,13.782,19.493Zm0,0" fill="#fff"/>
</svg>
