<svg id="open-menu-black" xmlns="http://www.w3.org/2000/svg" width="253.282" height="173.332" viewBox="0 0 253.282 173.332">
  <path id="Path_367" data-name="Path 367" d="M242.729,154.668H10.553C4.728,154.668,0,147.5,0,138.668s4.728-16,10.553-16H242.729c5.826,0,10.553,7.168,10.553,16S248.554,154.668,242.729,154.668Zm0,0" transform="translate(0 -52)"/>
  <path id="Path_368" data-name="Path 368" d="M242.729,32H10.553C4.728,32,0,24.832,0,16S4.728,0,10.553,0H242.729c5.826,0,10.553,7.168,10.553,16S248.554,32,242.729,32Zm0,0"/>
  <path id="Path_369" data-name="Path 369" d="M242.729,277.332H10.553c-5.826,0-10.553-7.168-10.553-16s4.728-16,10.553-16H242.729c5.826,0,10.553,7.168,10.553,16S248.554,277.332,242.729,277.332Zm0,0" transform="translate(0 -104)"/>
</svg>
