<svg xmlns="http://www.w3.org/2000/svg" width="17.772" height="11.92" viewBox="0 0 17.772 11.92">
  <g id="Password-reveal-off" transform="translate(-1022 -513)">
    <g id="interface" transform="translate(1022 420.165)">
      <g id="Group_813" data-name="Group 813" transform="translate(0 92.835)">
        <g id="Group_812" data-name="Group 812" transform="translate(0 0)">
          <path id="Path_375" data-name="Path 375" d="M17.4,98.076c-.156-.214-3.885-5.241-8.646-5.241S.267,97.862.111,98.076a.578.578,0,0,0,0,.682C.267,98.971,4,104,8.757,104s8.489-5.027,8.646-5.241A.577.577,0,0,0,17.4,98.076Zm-8.646,4.767c-3.507,0-6.545-3.336-7.444-4.427.9-1.092,3.929-4.426,7.444-4.426S15.3,97.326,16.2,98.417C15.3,99.508,12.272,102.843,8.757,102.843Z" transform="translate(0 -92.835)" fill="#706f6f"/>
        </g>
      </g>
      <g id="Group_815" data-name="Group 815" transform="translate(5.293 94.952)">
        <g id="Group_814" data-name="Group 814">
          <path id="Path_376" data-name="Path 376" d="M158.186,154.725a3.464,3.464,0,1,0,3.464,3.464A3.468,3.468,0,0,0,158.186,154.725Zm0,5.774a2.31,2.31,0,1,1,2.31-2.31A2.312,2.312,0,0,1,158.186,160.5Z" transform="translate(-154.722 -154.725)" fill="#706f6f"/>
        </g>
      </g>
    </g>
    <line id="Line_4" data-name="Line 4" x2="17" y2="11" transform="translate(1022.5 513.5)" fill="none" stroke="#706f6f" stroke-width="1"/>
  </g>
</svg>
