<svg xmlns="http://www.w3.org/2000/svg" width="37.243" height="31.592" viewBox="0 0 37.243 31.592">
  <g id="team" transform="translate(0 -38.84)">
    <g id="Group_794" data-name="Group 794" transform="translate(28.986 55.896)">
      <g id="Group_793" data-name="Group 793" transform="translate(0 0)">
        <path id="Path_360" data-name="Path 360" d="M401.374,273.32h-2.88a7.492,7.492,0,0,1,.454,2.575v10.885a3.21,3.21,0,0,1-.185,1.075h4.762a3.229,3.229,0,0,0,3.226-3.226V278.7A5.382,5.382,0,0,0,401.374,273.32Z" transform="translate(-398.494 -273.32)" fill="#fff"/>
      </g>
    </g>
    <g id="Group_796" data-name="Group 796" transform="translate(0 55.896)">
      <g id="Group_795" data-name="Group 795">
        <path id="Path_361" data-name="Path 361" d="M7.8,275.9a7.492,7.492,0,0,1,.454-2.575H5.376A5.382,5.382,0,0,0,0,278.7v5.934a3.229,3.229,0,0,0,3.226,3.226H7.987a3.211,3.211,0,0,1-.185-1.075Z" transform="translate(0 -273.321)" fill="#fff"/>
      </g>
    </g>
    <g id="Group_798" data-name="Group 798" transform="translate(9.953 53.095)">
      <g id="Group_797" data-name="Group 797" transform="translate(0 0)">
        <path id="Path_362" data-name="Path 362" d="M148.79,234.815h-6.585a5.382,5.382,0,0,0-5.376,5.376v10.885a1.075,1.075,0,0,0,1.075,1.075h15.186a1.075,1.075,0,0,0,1.075-1.075V240.191A5.382,5.382,0,0,0,148.79,234.815Z" transform="translate(-136.829 -234.815)" fill="#fff"/>
      </g>
    </g>
    <g id="Group_800" data-name="Group 800" transform="translate(12.156 38.84)">
      <g id="Group_799" data-name="Group 799" transform="translate(0 0)">
        <path id="Path_363" data-name="Path 363" d="M173.58,38.84a6.464,6.464,0,1,0,6.466,6.466A6.473,6.473,0,0,0,173.58,38.84Z" transform="translate(-167.114 -38.84)" fill="#fff"/>
      </g>
    </g>
    <g id="Group_802" data-name="Group 802" transform="translate(2.433 44.866)">
      <g id="Group_801" data-name="Group 801">
        <path id="Path_364" data-name="Path 364" d="M38.278,121.689a4.833,4.833,0,1,0,4.835,4.835A4.841,4.841,0,0,0,38.278,121.689Z" transform="translate(-33.443 -121.689)" fill="#fff"/>
      </g>
    </g>
    <g id="Group_804" data-name="Group 804" transform="translate(25.139 44.866)">
      <g id="Group_803" data-name="Group 803">
        <path id="Path_365" data-name="Path 365" d="M350.442,121.689a4.835,4.835,0,1,0,4.835,4.835A4.841,4.841,0,0,0,350.442,121.689Z" transform="translate(-345.607 -121.689)" fill="#fff"/>
      </g>
    </g>
  </g>
</svg>
