<svg xmlns="http://www.w3.org/2000/svg" width="480.814" height="550.814" viewBox="0 0 480.814 550.814">
  <g id="Layer_x0020_1" transform="translate(-215.783 -141.211)">
    <g id="Group_2" data-name="Group 2" transform="translate(215.783 141.211)">
      <path id="Path_100" data-name="Path 100" d="M5949,842.9a5.9,5.9,0,1,1,5.9,5.9A5.88,5.88,0,0,1,5949,842.9Z" transform="translate(-5518.784 -817.277)" fill="#f26c48"/>
      <path id="Path_101" data-name="Path 101" d="M5743,842.9a5.9,5.9,0,1,1,5.9,5.9A5.88,5.88,0,0,1,5743,842.9Z" transform="translate(-5331.77 -817.277)" fill="#f26c48"/>
      <path id="Path_102" data-name="Path 102" d="M5536,842.9a5.9,5.9,0,1,1,5.9,5.9A5.88,5.88,0,0,1,5536,842.9Z" transform="translate(-5143.847 -817.277)" fill="#f26c48"/>
      <g id="Group_1" data-name="Group 1" transform="translate(0)">
        <path id="Path_7" data-name="Path 7" d="M2807.591,2644H2697.824A13.806,13.806,0,0,0,2684,2657.824v231.053a13.806,13.806,0,0,0,13.824,13.824h109.766a13.806,13.806,0,0,0,13.825-13.824V2657.824A13.806,13.806,0,0,0,2807.591,2644Z" transform="translate(-2537.326 -2476.045)" fill="#354e5f"/>
        <path id="Path_8" data-name="Path 8" d="M2555,3425.461a52.341,52.341,0,0,1,5.714,5.53c4.608,5.254,4.147,5.345,6.083,9.77V3425l-11.8.368Z" transform="translate(-2416.234 -3181.264)" fill="#f4b075"/>
        <path id="Path_9" data-name="Path 9" d="M2775,3136.616h120.088V2931H2775Z" transform="translate(-2620.015 -2736.25)" fill="#dff2f6"/>
        <path id="Path_10" data-name="Path 10" d="M3311.013,2781.161h-38.432a2.58,2.58,0,1,1,0-5.161h38.432a2.58,2.58,0,1,1,0,5.161Z" transform="translate(-3070.222 -2588.514)" fill="#3c647c"/>
        <path id="Path_11" data-name="Path 11" d="M3118.295,2764.147a4.147,4.147,0,1,1-4.147-4.147A4.13,4.13,0,0,1,3118.295,2764.147Z" transform="translate(-2923.106 -2573.966)" fill="#446f7a"/>
        <path id="Path_12" data-name="Path 12" d="M3355.589,5222.295a8.294,8.294,0,1,1-8.294-8.294A8.259,8.259,0,0,1,3355.589,5222.295Z" transform="translate(-3132.496 -4814.68)" fill="#3c647c"/>
        <path id="Path_13" data-name="Path 13" d="M3367.009,5235a7,7,0,1,1-7-7A7,7,0,0,1,3367.009,5235Z" transform="translate(-3145.214 -4827.353)" fill="#354e5f"/>
        <path id="Path_14" data-name="Path 14" d="M2880.8,3258.092h-56.773a2.715,2.715,0,0,0-2.765,2.765v1.382l-6.267,3.594,6.267,3.594v1.567a2.716,2.716,0,0,0,2.765,2.765H2880.8a2.716,2.716,0,0,0,2.765-2.765v-10.23A2.715,2.715,0,0,0,2880.8,3258Z" transform="translate(-2655.064 -3028.79)" fill="#fefefe"/>
        <path id="Path_15" data-name="Path 15" d="M3285.765,3517.668h56.773a2.716,2.716,0,0,0,2.765-2.765v-1.383l6.267-3.594-6.267-3.594v-1.567a2.716,2.716,0,0,0-2.765-2.765h-56.773a2.715,2.715,0,0,0-2.765,2.765V3515a2.715,2.715,0,0,0,2.765,2.765Z" transform="translate(-3082.887 -3251.565)" fill="#b0dfe4"/>
        <path id="Path_16" data-name="Path 16" d="M3285.765,3735.668h56.773a2.716,2.716,0,0,0,2.765-2.765v-1.382l6.267-3.594-6.267-3.595v-1.566a2.716,2.716,0,0,0-2.765-2.765h-56.773a2.716,2.716,0,0,0-2.765,2.765V3733a2.716,2.716,0,0,0,2.765,2.765Z" transform="translate(-3082.887 -3450.602)" fill="#b0dfe4"/>
        <path id="Path_17" data-name="Path 17" d="M2904.5,3980h-79.353a4.425,4.425,0,0,0-4.424,4.424v.092l-6.728,3.871,6.728,3.871v11.521a4.425,4.425,0,0,0,4.424,4.424H2904.5a4.425,4.425,0,0,0,4.424-4.424v-19.354A4.425,4.425,0,0,0,2904.5,3980Z" transform="translate(-2654.895 -3688.375)" fill="#fefefe"/>
        <path id="Path_18" data-name="Path 18" d="M3006.424,4578h79.352a4.425,4.425,0,0,1,4.424,4.424v.092l6.728,3.871-6.728,3.871v11.52a4.426,4.426,0,0,1-4.424,4.424h-79.352a4.425,4.425,0,0,1-4.424-4.424v-19.354A4.425,4.425,0,0,1,3006.424,4578Z" transform="translate(-2826.83 -4234.427)" fill="#b0dfe4"/>
        <path id="Path_19" data-name="Path 19" d="M2880.173,4353.093H2823.4a2.715,2.715,0,0,0-2.765,2.765v1.29l-6.635,3.779,6.635,3.778V4366a2.716,2.716,0,0,0,2.765,2.765h56.773a2.715,2.715,0,0,0,2.765-2.765v-10.23a2.715,2.715,0,0,0-2.765-2.765Z" transform="translate(-2654.16 -4028.54)" fill="#fefefe"/>
        <path id="Path_20" data-name="Path 20" d="M2775,2952.105h120.088V2931H2775Z" transform="translate(-2620.015 -2730.348)" fill="#b0dfe4"/>
        <path id="Path_21" data-name="Path 21" d="M2775,4999.5h120.088V4983H2775Z" transform="translate(-2620.015 -4603.768)" fill="#fefefe"/>
        <path id="Path_22" data-name="Path 22" d="M2839.963,4567.211h-3.594c-.184-1.659-.369-2.857-.369-3.5.184-4.884,4.516-18.8,19.17-36.22.737-.829,1.383-1.659,2.028-2.488h7.373l-2.857,4.977h-5.99a4.425,4.425,0,0,0-4.424,4.424v13.456l-11.336,19.446Z" transform="translate(-2673.276 -4186.571)" fill="#e5f4f7"/>
        <path id="Path_23" data-name="Path 23" d="M3003,4594.88v-13.457a4.425,4.425,0,0,1,4.424-4.423h5.99L3003,4594.788Z" transform="translate(-2825.421 -4233.132)" fill="#c0e5e9"/>
        <path id="Path_24" data-name="Path 24" d="M2954.677,3270.95h-10.414a14.261,14.261,0,0,0-1.659-6.267h15.668ZM2925,3269.844l2.949-5.161h8.664C2933.571,3265.974,2929.424,3267.817,2925,3269.844Zm49.768-33.271h-30.506l16.5-28.478h30.6l-2.58,4.332h-28.11a2.716,2.716,0,0,0-2.765,2.765v10.23a2.716,2.716,0,0,0,2.765,2.765h18.893l-4.885,8.295Zm25.805-44.146h-30.69l3.779-6.543h7a2.716,2.716,0,0,0,2.765-2.765v-10.23a2.755,2.755,0,0,0-1.014-2.12l5.714-9.769h11.7v1.382a46.373,46.373,0,0,0,5.53,21.935Z" transform="translate(-2755.962 -2942.846)" fill="#e5f4f7"/>
        <path id="Path_25" data-name="Path 25" d="M3460,3281.115h-7l8.755-15.115a2.756,2.756,0,0,1,1.014,2.12v10.23A2.716,2.716,0,0,1,3460,3281.115Z" transform="translate(-3236.441 -3036.079)" fill="#fefefe"/>
        <path id="Path_26" data-name="Path 26" d="M3343.6,3516.76H3313l9.124-15.76h30.69Z" transform="translate(-3109.402 -3250.653)" fill="#c0e5e9"/>
        <path id="Path_27" data-name="Path 27" d="M3304.658,3734.76h-18.894A2.715,2.715,0,0,1,3283,3732v-10.23a2.716,2.716,0,0,1,2.765-2.765h28.11Z" transform="translate(-3081.732 -3449.689)" fill="#c0e5e9"/>
        <path id="Path_28" data-name="Path 28" d="M2987.322,4008.2h-15.667a8.061,8.061,0,0,0-1.475-1.936s-1.751.737-4.516,1.936H2957l16.313-28.2h30.506Z" transform="translate(-2784.281 -3688.375)" fill="#fefefe"/>
        <path id="Path_29" data-name="Path 29" d="M3074.373,4368.76H3067c4.977-6.636,6.267-11.89,6.175-15.76h10.415Z" transform="translate(-2884.027 -4028.54)" fill="#fefefe"/>
        <path id="Path_30" data-name="Path 30" d="M3621.7,2952.105H3610L3622.258,2931h5.253A45.454,45.454,0,0,0,3621.7,2952.105Z" transform="translate(-3380.079 -2730.348)" fill="#c0e5e9"/>
        <path id="Path_31" data-name="Path 31" d="M2840.737,4987.885c-.276-1.843-.553-3.5-.737-4.884h3.594Z" transform="translate(-2676.392 -4603.314)" fill="#fefefe"/>
        <path id="Path_32" data-name="Path 32" d="M2775,3245.527v-55.3l6.82-11.428,3.134,1.843v1.567a2.715,2.715,0,0,0,2.765,2.765h22.672L2775,3245.62Zm12.534-76.4,5.437-9.124h31.981l-5.345,9.124h-32.073Z" transform="translate(-2618.034 -2941.161)" fill="#e5f4f7"/>
        <path id="Path_33" data-name="Path 33" d="M2877.57,3274.76H2854.9a2.716,2.716,0,0,1-2.765-2.765v-1.567l-3.133-1.843,5.714-9.585h32.073Z" transform="translate(-2685.367 -3029.703)" fill="#fefefe"/>
        <path id="Path_34" data-name="Path 34" d="M3001.981,3060.138H2970l1.843-3.134h10.23a51.027,51.027,0,0,0,25.805-7l-5.99,10.23Z" transform="translate(-2795.932 -2838.762)" fill="#c0e5e9"/>
        <path id="Path_35" data-name="Path 35" d="M2699.682,4515.928h-2.857A13.807,13.807,0,0,1,2683,4502.1v-75.021c2.857-2.212,5.714-4.332,8.387-6.083v68.293h8.387C2700.879,4498.51,2701.433,4508.924,2699.682,4515.928Z" transform="translate(-2533.272 -4093.816)" fill="#31414c"/>
        <path id="Path_36" data-name="Path 36" d="M2774.092,4416.666v-68.292a68.038,68.038,0,0,1,8.111-4.7c1.936-.922,3.871-1.751,5.714-2.673l-.645,1.106h-.184a2.716,2.716,0,0,0-2.765,2.765v1.29l-6.636,3.779,3.687,2.12L2774,4364.871v51.7Z" transform="translate(-2616.32 -4019.858)" fill="#a7c0bf"/>
        <path id="Path_37" data-name="Path 37" d="M2818.687,4363.953l-3.687-2.119,6.636-3.779v-1.291A2.715,2.715,0,0,1,2824.4,4354h.184l-5.806,10.046Z" transform="translate(-2653.681 -4029.26)" fill="#c1c0c1"/>
        <path id="Path_38" data-name="Path 38" d="M2782.387,5047.613H2774l6.82-11.612C2781.281,5039.318,2781.926,5043.373,2782.387,5047.613Z" transform="translate(-2616.207 -4651.963)" fill="#c1c0c1"/>
        <path id="Path_39" data-name="Path 39" d="M2781.083,4510.017H2775v-35.207l7.373-12.81,2.857,1.659v1.29a2.716,2.716,0,0,0,2.765,2.765h13.917c-.645.829-1.29,1.659-2.027,2.488-14.746,17.419-18.986,31.335-19.17,36.22a23.3,23.3,0,0,0,.369,3.5Z" transform="translate(-2617.508 -4129.258)" fill="#acc0bf"/>
        <path id="Path_40" data-name="Path 40" d="M2937.907,4292.267H2918l.645-1.106c4.424-2.028,8.664-3.871,11.613-5.161h5.991A13.9,13.9,0,0,1,2937.907,4292.267Z" transform="translate(-2747.992 -3967.055)" fill="#acc0bf"/>
        <path id="Path_41" data-name="Path 41" d="M3056.99,4266.936H3051c2.765-1.2,4.516-1.936,4.516-1.936A8.04,8.04,0,0,1,3056.99,4266.936Z" transform="translate(-2869.162 -3947.746)" fill="#c1c0c1"/>
        <path id="Path_42" data-name="Path 42" d="M2874.539,4368.76h-13.917a2.716,2.716,0,0,1-2.765-2.765V4364.7l-2.857-1.659,5.806-10.045h19.907C2880.806,4356.871,2879.423,4362.125,2874.539,4368.76Z" transform="translate(-2690.57 -4028.54)" fill="#c1c0c1"/>
        <path id="Path_43" data-name="Path 43" d="M2775,4999.5V4983h6.083c.184,1.382.461,3.041.737,4.884Z" transform="translate(-2617.089 -4603.768)" fill="#c1c0c1"/>
        <path id="Path_44" data-name="Path 44" d="M3884.285,5051.552H3870a83.836,83.836,0,0,1,12.442-11.8c4.516-3.41,6.083-8.847,2.673-14.838h4.147V5011c7.373,5.253,8.94,11.243,8.94,11.243v15.484a20.112,20.112,0,0,1-3.133,8.755,13.338,13.338,0,0,1-3.687,3.133h-.092a24.737,24.737,0,0,1-5.991,1.843h-.922Z" transform="translate(-3617.954 -4630.341)" fill="#31414c"/>
        <path id="Path_45" data-name="Path 45" d="M3866.353,4889.493h-15.944a20.338,20.338,0,0,1-1.567-9.124h5.714a3.741,3.741,0,0,0,1.751-.369A55.742,55.742,0,0,0,3866.353,4889.493Z" transform="translate(-3598.246 -4509.457)" fill="#a7c0bf"/>
        <path id="Path_46" data-name="Path 46" d="M3855.714,4793.216H3850a28.089,28.089,0,0,1,2.12-9.216,34.854,34.854,0,0,0,5.346,8.848A3.742,3.742,0,0,1,3855.714,4793.216Z" transform="translate(-3598.991 -4421.803)" fill="#81b6b6"/>
        <path id="Path_47" data-name="Path 47" d="M3885.539,4998.589h-4.147a31.593,31.593,0,0,0-9.124-9.216A17.307,17.307,0,0,1,3866,4982h15.944c1.014.737,2.027,1.475,3.133,2.212.184.092.369.277.553.369V4998.5Z" transform="translate(-3614.005 -4602.858)" fill="#c1c0c1"/>
        <path id="Path_48" data-name="Path 48" d="M1508.259,3486.421v-61.565s-4.608-.645-19.815,1.106c-12.626,1.382-20.921,19.262-30.045,30.413-8.755,10.783-36.22,30.23-42.3,43.317-14.377,30.782-14.746,61.2-18.064,83.131s-7.834,74.191-4.516,86.357S1389,3701.9,1389,3701.9l64.238,21.474s6.636-15.575,14.838-24.515,27.926-27.187,35.483-46.634c6.636-17.142,8.387-45.344,8.387-45.344l-1.844-2.488a9.388,9.388,0,0,1-1.751-5.346l-.092-40.644s13.271-26.819,25.621-37.142c17.05-14.193,16.682-32.9,5.345-37.879-9.4-4.055-31.059,15.115-31.059,15.115v-12.258Z" transform="translate(-1348.725 -3198.363)" fill="#ffd389"/>
        <path id="Path_49" data-name="Path 49" d="M2088.367,4173.093s-26.359,23.409-32.441,28.479c-6.083,5.161-16.036,12.534-18.986,18.524-4.7,9.309-8.94,36.128-8.94,36.128s7.465-31.428,19.539-42.488c9.216-8.479,40.828-36.035,40.828-36.035v-4.608Z" transform="translate(-1935.503 -3866.68)" fill="#f4b075"/>
        <path id="Path_50" data-name="Path 50" d="M2149.013,3723.538c-1.291,1.2-7,5.346-12.442,4.332a24.524,24.524,0,0,1-8.571-3.5,31.143,31.143,0,0,0,7.373,7.465,10.1,10.1,0,0,1,4.516,7.742,103.508,103.508,0,0,1-.092,23.962l4.055-3.41c-.092.83-.092,1.2-.092,1.2l20.091-15.76,14.654-13.271.737-3.226V3684s-19.539,29.308-30.137,39.446Z" transform="translate(-2026.762 -3419.742)" fill="#f4b075"/>
        <path id="Path_51" data-name="Path 51" d="M2748.386,4076.863c-.553-2.12-5.714-9.216-9.4-8.94-6.82,2.488-14.654,8.295-18.986,11.8,0,0,1.106,6.451,9.585,6.359s19.447-7,18.894-9.216Z" transform="translate(-2567.293 -3768.329)" fill="#ffe2ae"/>
        <path id="Path_52" data-name="Path 52" d="M1510.1,4921.99a9.389,9.389,0,0,1-1.751-5.346l-.092-40.644s-5.253,8.571-5.53,15.576c-.276,7.1,2.028,41.473-.276,49.307h0a7.466,7.466,0,0,1-.276,1.014c-2.673,9.493-5.9,19.354-8.756,24.331-6.451,11.428-15.668,20.921-24.423,28.294s-9.769,25.714-23.962,25.99c-35.575.83-51.519-18.249-51.519-18.249h0l-.276,1.659v.184c-.092.461-.184.922-.276,1.291,0,.092-.092.276-.092.369-.092.461-.184.83-.276,1.2l-.092.276c-.276,1.014-.461,1.936-.737,2.949v.185c-.092.369-.184.829-.277,1.2l-.092.276-.276,1.106-.092.185c-.276.83-.461,1.567-.645,2.3v.092l-.276.83-.092.184a2.352,2.352,0,0,0-.184.645l-.092.092a10.007,10.007,0,0,1-.461,1.291l-.092.092-.092.276v.092l-.092.184v.185l62.671,20.921,1.567.553s6.636-15.576,14.838-24.516,27.926-27.187,35.483-46.634c6.636-17.143,8.387-45.344,8.387-45.344l-1.844-2.488Z" transform="translate(-1348.725 -4515.871)" fill="#f4b075"/>
        <path id="Path_53" data-name="Path 53" d="M2719,4176.028a7.834,7.834,0,0,0,5.069,5.622,14.393,14.393,0,0,0-.461-2.489c-1.382-4.885-2.027-5.161-2.027-5.161C2720.659,4174.738,2719.737,4175.382,2719,4176.028Z" transform="translate(-2565.906 -3864.852)" fill="#fefefe"/>
        <path id="Path_54" data-name="Path 54" d="M3883.6,3387.092v-23.409s34.1,25.253,38.155,23.133c4.608-2.489-.737-20.276-11.7-43.685-5.806-12.258-26.451-46.911-26.451-46.911V3272.81c0-4.977,12.442-4.147,17.879,1.659,9.769,10.322,29.584,30.875,38.893,43.04s68.292,94.836,76.864,123.5c9.861,32.81,3.779,71.979,5.253,81.656s13.364,32.441,13.364,32.441l-66.911,36.036s-5.806-11.336-14.469-27.557c-4.148-7.926-34.469-6.175-57.971-57.141-10.6-22.856-34.746-35.759-31.7-35.759s5.806.829,11.889-1.844,6.912-11.981,6.912-11.981v-15.483s-1.659-6.267-9.4-11.612c-18.249-12.442-23.963-27.1-17.788-38.34,2.857-5.069,8.018-6.175,17.6-.83s9.585,5.9,9.585,5.9v-9.4Z" transform="translate(-3616.886 -3057.469)" fill="#ffd389"/>
        <path id="Path_55" data-name="Path 55" d="M4041.9,5431a22.073,22.073,0,0,1-5.9,1.843A14.29,14.29,0,0,0,4041.9,5431Z" transform="translate(-3768.828 -5012.172)" fill="#ffd389"/>
        <path id="Path_56" data-name="Path 56" d="M3874.2,4586.456c7.833,5.345,9.4,11.612,9.4,11.612v-44.883s0-.553-9.585-5.9-14.746-4.24-17.6.829C3850.242,4559.268,3855.956,4573.921,3874.2,4586.456Z" transform="translate(-3603.405 -4204.189)" fill="#ffd389"/>
        <path id="Path_57" data-name="Path 57" d="M4140,5309.848a13.541,13.541,0,0,0,3.226-8.848A20.1,20.1,0,0,1,4140,5309.848Z" transform="translate(-3863.725 -4893.784)" fill="#ffd389"/>
        <path id="Path_58" data-name="Path 58" d="M3947.741,4559.755s0-.553-9.585-5.9a51.922,51.922,0,0,0-6.267-2.856c-.276,0-5.069.829-6.543,5.161-1.567,4.423-1.014,9.308,8.294,14.1s17.05.184,17.511-2.3c.553-2.488,1.935-9.953,1.935-9.953s-2.4-2.4-5.345-4.977Z" transform="translate(-3667.909 -4209.52)" fill="#ffe2ae"/>
        <path id="Path_59" data-name="Path 59" d="M4141.368,5246.822s-1.2-2.3-2.857-5.714l-2.488-4.977s-33.64,21.013-51.7,18.8c-14.286-1.751-15.392-6.636-21.935-10.69-12.166-7.374-29.032-14.746-38.063-25.9-9.124-11.152-24.607-40.091-26.451-53.178A150.574,150.574,0,0,0,3989.3,5133v15.483s-.092.553-.185,1.475a2.838,2.838,0,0,1-.185.737c-.645,2.95-2.4,7.926-6.543,9.77a25.774,25.774,0,0,1-3.963,1.383,2.7,2.7,0,0,1-.83.184c-.553.092-1.014.185-1.566.277-1.2.092-2.212.092-3.226.092-.737,0-1.566-.092-2.3-.092-.553,0-.185.46.921,1.382.553.461,1.29,1.014,2.12,1.659.369.277.829.646,1.29,1.014s1.014.83,1.566,1.291c2.212,1.75,4.793,3.87,7.558,6.451a85.323,85.323,0,0,1,13.732,15.945,21.874,21.874,0,0,1,1.2,1.935,65.8,65.8,0,0,1,3.318,6.174c.645,1.475,1.382,2.857,2.027,4.24.092.185.184.461.276.645.645,1.291,1.291,2.581,1.936,3.778.092.185.276.461.369.646.645,1.2,1.382,2.4,2.028,3.594.092.093.184.277.276.369.737,1.2,1.383,2.3,2.12,3.41l.092.092c.737,1.106,1.382,2.212,2.12,3.226.092.185.184.277.276.461.737,1.014,1.382,2.028,2.12,2.949.092.092.184.277.276.369.737.921,1.475,1.936,2.212,2.765h0c.737.922,1.566,1.843,2.3,2.765h0l2.212,2.489.184.184c.737.829,1.475,1.567,2.212,2.3l.092.092c.461.461.922.922,1.475,1.383l.276.276c.369.369.829.737,1.2,1.106l.185.185c.461.461,1.014.829,1.475,1.29l.185.092a12.391,12.391,0,0,0,1.29,1.014l.276.277a13.115,13.115,0,0,0,1.383,1.013h0a13.24,13.24,0,0,0,1.382,1.014l.185.184c.369.276.83.553,1.2.83l.184.185c.922.645,1.843,1.2,2.673,1.75l.185.093c.368.276.83.46,1.2.737l.092.092c.461.276.922.553,1.291.738h0c.46.276.829.46,1.2.645l.184.092c.83.461,1.659.922,2.488,1.291h.092l1.106.552h.092c2.12,1.015,4.055,1.936,5.714,2.673l.369.184a1.544,1.544,0,0,0,.461.185c.276.092.461.276.737.369l.277.184.553.277.276.185a2.3,2.3,0,0,1,.645.368l.092.093a5.165,5.165,0,0,1,.645.368l.185.092c.184.092.276.184.46.276l.185.092c.185.092.369.277.553.369l.092.092c.184.092.277.184.461.277l.185.092c.092.092.276.185.369.369l.092.092c.184.092.276.276.368.369l.092.092.276.369.092.092c.092.185.184.277.277.461h0c3.225,6.082,6.083,11.52,8.387,15.852.368.737.737,1.383,1.105,2.12,3.134,5.99,4.977,9.584,4.977,9.584l66.91-36.035Z" transform="translate(-3722.395 -4749.185)" fill="#f4b075"/>
        <path id="Path_60" data-name="Path 60" d="M4182.965,4613.442c.553-2.488,1.936-9.954,1.936-9.954s-1.014-1.014-2.581-2.488a27.263,27.263,0,0,0-1.659,4.977,28.487,28.487,0,0,0-.185,10.046c1.383-.83,2.3-1.844,2.4-2.581Z" transform="translate(-3900.422 -4254.94)" fill="#fefefe"/>
        <path id="Path_61" data-name="Path 61" d="M4221.925,3545.867c-14.1-12.35-28.017-23.041-24.7-30.875,2.949-7,10.414,0,15.852,3.779,7.833,5.438,21.29,12.626,21.29,12.626s-8.2-11.244-10.507-16.682c-2.212-5.437-5.9-14.009-6.636-20.829s-4.24-15.3-5.53-18.709c-3.318-8.571,17.419-13.732,17.419-13.732s-12.442,2.3-14.931,1.751c-2.4-.553-8.387-1.751-11.981-9.585a168.39,168.39,0,0,0-11.613-20.276c-3.594-5.438,15.207-10.783,15.207-10.783s-20.183,3.41-21.2,1.014c-4.332-9.954-10.6-21.566-10.6-21.566v14.47s20.736,34.653,26.45,46.911c.369.829.737,1.567,1.106,2.4a5.523,5.523,0,0,0,.369.737c.277.553.461,1.106.738,1.567.092.276.276.553.368.829.185.461.461,1.014.646,1.475a9.65,9.65,0,0,1,.369.922c.184.46.46,1.014.645,1.474.092.277.276.553.369.829.277.645.553,1.2.737,1.751.092.093.092.277.185.369a14.617,14.617,0,0,0,.921,2.12c.092.184.185.461.277.645.184.461.369,1.014.553,1.475a6.265,6.265,0,0,0,.277.737,7.257,7.257,0,0,1,.46,1.29,6.343,6.343,0,0,0,.276.737c.185.461.276.829.461,1.29.092.276.184.461.277.737a8.139,8.139,0,0,1,.46,1.382c.092.184.092.369.184.553.185.645.461,1.2.646,1.844,0,.092.092.276.092.369.184.461.276.921.46,1.383.092.184.092.368.185.553a5.189,5.189,0,0,0,.369,1.106c.092.184.092.461.184.645.092.369.185.645.277,1.014.092.184.092.368.184.553.092.369.185.646.276,1.014a4.008,4.008,0,0,0,.092.461q.138.691.277,1.382h0a14.376,14.376,0,0,1,.369,1.936c.092.645.184,1.29.276,1.843h0a10,10,0,0,1-.276,4.24,2.7,2.7,0,0,1-1.383,1.843c-3.041,1.659-23.041-12.257-32.81-19.262l-5.346-3.134v32.073s36.773,25.253,44.7,32.9c8.755,8.479,29.492,35.483,29.492,35.483s-15.391-29.584-26.358-39.169Z" transform="translate(-3897.658 -3166.281)" fill="#f4b075"/>
        <path id="Path_62" data-name="Path 62" d="M1066.282,6359.24l5.345-14.008a11.03,11.03,0,0,0-6.359-14.286l-78.891-30.321a11.03,11.03,0,0,0-14.285,6.359L952,6359.149h114.19Z" transform="translate(-952 -5808.519)" fill="#c45655"/>
        <path id="Path_63" data-name="Path 63" d="M1398.969,6338.029l-78.891-30.322c-5.437-2.12,35.206,21.842,39.446,41.381,1.475,6.636.184,17.143.184,17.143h40.183l5.345-14.009a11.031,11.031,0,0,0-6.359-14.286Z" transform="translate(-1285.701 -5815.508)" fill="#a24241"/>
        <path id="Path_64" data-name="Path 64" d="M4909.428,6351.634h121.287l-22.764-53.086a11.6,11.6,0,0,0-15.3-6.083l-81.1,34.745a11.6,11.6,0,0,0-6.082,15.3l3.962,9.216Z" transform="translate(-4570.545 -5800.911)" fill="#c45655"/>
        <path id="Path_65" data-name="Path 65" d="M4912.547,6501.972a11.6,11.6,0,0,0-6.083,15.3l3.963,9.216h40.828a38.745,38.745,0,0,1-3.962-17.142c-.185-13.087,7.28-25.345,7.28-25.345Z" transform="translate(-4565.042 -5975.673)" fill="#a24241"/>
        <path id="Path_66" data-name="Path 66" d="M3182.665,623H2978.431a58.431,58.431,0,1,0,0,116.863h204.233a58.431,58.431,0,0,0,0-116.863Z" transform="translate(-2768.945 -623)" fill="#d15a3b"/>
        <path id="Path_67" data-name="Path 67" d="M3137.693,775.846A48.846,48.846,0,1,1,3088.846,727,48.812,48.812,0,0,1,3137.693,775.846Z" transform="translate(-2861.677 -717.415)" fill="#f26c48"/>
        <path id="Path_68" data-name="Path 68" d="M3685.806,1257.553s-1.2,3.779-2.857,5.253a8.962,8.962,0,0,1-2.949,1.936l2.856-7.742,2.857.553Z" transform="translate(-3443.667 -1198.569)" fill="#7a523c"/>
        <path id="Path_69" data-name="Path 69" d="M3404,1257.553s1.2,3.779,2.857,5.253a8.969,8.969,0,0,0,2.949,1.936l-2.857-7.742-2.857.553Z" transform="translate(-3191.577 -1198.569)" fill="#7a523c"/>
        <path id="Path_70" data-name="Path 70" d="M3311.247,1447.829c-2.488-13.456-4.516-20.184-19.631-20.829l-9.309,11.428L3273,1427c-15.115.645-17.143,7.373-19.631,20.829a21.705,21.705,0,0,0-.368,2.58,48.8,48.8,0,0,0,58.708-.092c-.092-.829-.277-1.659-.369-2.488Z" transform="translate(-3055.146 -1352.901)" fill="#fefefe"/>
        <path id="Path_71" data-name="Path 71" d="M3485.143,1295.138V1285h-15.484v10.138c0,2.3-.553,2.673-1.659,3.041,1.659,2.857,4.147,15.3,9.585,15.391,5.438,0,7.373-12.442,9.124-15.391-1.013-.369-1.659-.737-1.659-3.041Z" transform="translate(-3250.397 -1223.988)" fill="#fed08e"/>
        <path id="Path_72" data-name="Path 72" d="M3715.567,1176.17c2.3.461,4.239-2.673,4.239-5.991,0-1.843-1.2-3.963-3.042-3.594a3.615,3.615,0,0,0-2.765,2.765v5.161a2.353,2.353,0,0,0,1.567,1.567Z" transform="translate(-3474.72 -1116.448)" fill="#fed08e"/>
        <path id="Path_73" data-name="Path 73" d="M3715.014,1191.675c1.567.369,2.857-2.027,2.857-4.516,0-1.382-.829-3.041-2.027-2.673a2.8,2.8,0,0,0-1.843,2.12v3.871s.276,1.014,1.106,1.2Z" transform="translate(-3474.662 -1132.691)" fill="#f5b782"/>
        <path id="Path_74" data-name="Path 74" d="M3376.24,1176.17c-2.3.461-4.24-2.673-4.24-5.991,0-1.843,1.2-3.963,3.041-3.594a3.615,3.615,0,0,1,2.765,2.765v5.161a2.353,2.353,0,0,1-1.566,1.567Z" transform="translate(-3162.349 -1116.448)" fill="#fed08e"/>
        <path id="Path_75" data-name="Path 75" d="M3395.857,1191.675c-1.567.369-2.857-2.027-2.857-4.516,0-1.382.83-3.041,2.028-2.673a2.8,2.8,0,0,1,1.843,2.12v3.871s-.277,1.014-1.106,1.2Z" transform="translate(-3181.478 -1132.691)" fill="#f5b782"/>
        <path id="Path_76" data-name="Path 76" d="M3493.742,1285.092H3486v7.373a12.171,12.171,0,0,0,9.4,4.332,12.939,12.939,0,0,0,6.083-1.567V1285h-7.742Z" transform="translate(-3266.746 -1223.988)" fill="#f5b782"/>
        <path id="Path_77" data-name="Path 77" d="M3436.79,1030.85c-4.424-3.133-17.88-3.133-22.3,0-3.5,2.489-5.069,11.244-2.949,18.064,2.488,8.295,6.543,13.64,14.1,13.824,7.649-.184,11.7-5.53,14.1-13.824C3441.766,1042.094,3440.2,1033.246,3436.79,1030.85Z" transform="translate(-3198.269 -991.128)" fill="#fed08e"/>
        <path id="Path_78" data-name="Path 78" d="M3508,1592.354l2.212-19.354h7l2.212,19.354c-1.843.184-3.779.369-5.714.369A38.832,38.832,0,0,1,3508,1592.354Z" transform="translate(-3286.726 -1485.445)" fill="#8e3333"/>
        <path id="Path_79" data-name="Path 79" d="M3528.881,1512.092h2.765l2.673,6.636a1.078,1.078,0,0,1-1.106,1.475l-5.99-.092a1.123,1.123,0,0,1-1.014-1.567l2.673-6.543Z" transform="translate(-3303.194 -1430.067)" fill="#6c3030"/>
        <path id="Path_80" data-name="Path 80" d="M3456.556,1416.885c2.949,2.949,4.332,4.424,4.332,4.424s-1.936,7.465-3.226,6.175-7.926-10.6-6.267-14.1c.369-.737,2.949-1.382,2.949-1.382a7.9,7.9,0,0,0,2.3,4.977Z" transform="translate(-3234.733 -1339.283)" fill="#eaeaea"/>
        <path id="Path_81" data-name="Path 81" d="M3588.332,1416.885c-2.949,2.949-4.332,4.424-4.332,4.424s1.936,7.465,3.226,6.175,7.926-10.6,6.267-14.1c-.369-.737-2.95-1.382-2.95-1.382a7.894,7.894,0,0,1-2.3,4.977Z" transform="translate(-3356.097 -1339.283)" fill="#eaeaea"/>
        <path id="Path_82" data-name="Path 82" d="M3398.2,967.916a19.194,19.194,0,0,0,.092,1.935c.093.645.277,2.488.277,2.488s2.673-5.806,6.359-7.281c3.687-1.382,6.912-1.935,9.4-3.5a28.057,28.057,0,0,1,4.885-2.581s3.871,6.359,5.069,6.728,1.659,1.382,2.212,2.673a45.911,45.911,0,0,1,1.382,4.7,15.183,15.183,0,0,0,.738-3.318v-2.488a5.383,5.383,0,0,1,.922-.092,3.85,3.85,0,0,0,.645.092,31.7,31.7,0,0,0,0-8.2c-.553-3.134-2.58-10.6-8.571-10.046-.461,0-1.014-.553-2.12-1.106-1.751-.922-4.792-1.751-11.244-.461a13.793,13.793,0,0,0-10.046,7.926c-1.2,2.581-1.2,11.8-1.2,11.8a4.071,4.071,0,0,1,.737.276,4.291,4.291,0,0,1,.553.461Z" transform="translate(-3185.966 -916.95)" fill="#7a523c"/>
        <path id="Path_83" data-name="Path 83" d="M3312.523,1456.672c-.092-.829-.276-1.659-.368-2.489-2.12-11.52-3.963-18.156-13.917-20.184-2.3,7-8.387,22.856-15.022,22.949-6.636-.092-12.719-15.944-15.023-22.949-9.954,2.028-11.7,8.663-13.824,20.184a21.712,21.712,0,0,0-.369,2.581,48.8,48.8,0,0,0,58.708-.092Z" transform="translate(-3056.06 -1359.256)" fill="#4b8b4b"/>
        <path id="Path_84" data-name="Path 84" d="M3599.4,814.831c-.092-.829-.276-1.659-.368-2.488-2.4-12.995-4.332-19.723-18.156-20.737v-.092c-.369-.737-2.949-1.383-2.949-1.383h0a6.608,6.608,0,0,1-.185-1.567V786.63a16.363,16.363,0,0,0,3.226-3.41,11.047,11.047,0,0,0,2.12-1.567,13.254,13.254,0,0,0,2.581-4.516c1.935-.276,3.41-3.134,3.41-5.991,0-1.382-.646-2.949-1.844-3.41a31.865,31.865,0,0,0,0-8.2c-.553-3.041-2.488-10.138-8.018-10.138h-.737c-.461,0-1.014-.553-2.028-1.106a11.593,11.593,0,0,0-5.346-1.106H3570V727a48.831,48.831,0,0,1,29.4,87.831Z" transform="translate(-3344.543 -717.415)" fill="#e6633e"/>
        <path id="Path_85" data-name="Path 85" d="M3689,1273.451a24.729,24.729,0,0,0,3.134-6.451,1.848,1.848,0,0,0,.737.369c.185,0,.276.092.46.092h.369a13.264,13.264,0,0,1-2.581,4.516,10,10,0,0,1-2.12,1.567Z" transform="translate(-3451.853 -1207.647)" fill="#704c3a"/>
        <path id="Path_86" data-name="Path 86" d="M3637.529,1450.317c-.092-.829-.277-1.659-.369-2.488-2.12-11.521-3.963-18.156-13.917-20.184-1.751,5.438-5.806,16.129-10.6,20.737l-.646-5.53a.977.977,0,0,0,.277-1.2l-.185-.461a.339.339,0,0,0,.276.092c.093,0,.184,0,.277-.184,1.29-1.29,7.834-10.506,6.359-14.1,13.824,1.014,15.76,7.742,18.156,20.737a23.191,23.191,0,0,1,.369,2.489h0Z" transform="translate(-3382.154 -1352.901)" fill="#e5e6e5"/>
        <path id="Path_87" data-name="Path 87" d="M3571.291,1404.968H3570v-9.308a10.02,10.02,0,0,0,1.659.092,12.94,12.94,0,0,0,6.083-1.567V1394a6.609,6.609,0,0,0,.185,1.567,8.121,8.121,0,0,1-2.3,4.977c-2.949,2.949-4.332,4.424-4.332,4.424v0Z" transform="translate(-3343.256 -1322.943)" fill="#e4bb80"/>
        <path id="Path_88" data-name="Path 88" d="M3724.2,1176.677a.833.833,0,0,1-.461-.092,1.853,1.853,0,0,1-.737-.369c.092-.184.092-.276.184-.461h.369c1.383,0,2.581-2.212,2.581-4.516,0-1.106-.553-2.4-1.382-2.673v-1.475a2.249,2.249,0,0,1,.645-.092h.276a3.858,3.858,0,0,0,.646.092h0a3.8,3.8,0,0,1,1.843,3.41c0,2.949-1.475,5.714-3.41,5.991h-.369Z" transform="translate(-3482.922 -1116.863)" fill="#e4bb80"/>
        <path id="Path_89" data-name="Path 89" d="M3724.369,1191.281H3724c.092-.368.276-.737.369-1.2.184-.553.276-1.106.461-1.751a16.722,16.722,0,0,0,.737-3.318V1184c.83.277,1.382,1.567,1.382,2.673,0,2.3-1.106,4.516-2.581,4.516Z" transform="translate(-3483.768 -1132.297)" fill="#dda678"/>
        <path id="Path_90" data-name="Path 90" d="M3571.659,1377.687c-.553,0-1.106-.092-1.659-.092v-1.2h.369a12.8,12.8,0,0,0,7.373-2.4v2.12A12.653,12.653,0,0,1,3571.659,1377.687Z" transform="translate(-3343.251 -1304.786)" fill="#dda678"/>
        <path id="Path_91" data-name="Path 91" d="M3570.369,1108.584H3570v-26.266a10.035,10.035,0,0,0,1.383-.737,28.043,28.043,0,0,1,4.884-2.581s3.871,6.359,5.069,6.728,1.659,1.382,2.212,2.673a45.936,45.936,0,0,1,1.382,4.7h0a16.468,16.468,0,0,1-.46,1.751c-.092.369-.276.829-.369,1.2-.092.184-.092.277-.184.461a23.358,23.358,0,0,1-3.134,6.451,12.626,12.626,0,0,1-10.6,5.806Z" transform="translate(-3343.462 -1036.974)" fill="#e4bb80"/>
        <path id="Path_92" data-name="Path 92" d="M3570,1605.834h0v-7.557h3.042a1.046,1.046,0,0,0,.737-.276l.646,5.53a6.583,6.583,0,0,1-4.424,2.212Z" transform="translate(-3343.156 -1508.141)" fill="#813132"/>
        <path id="Path_93" data-name="Path 93" d="M3573.042,1522.11H3570V1514h1.291c.185.553,1.475,5.438,2.581,6.175l.185.461a1.118,1.118,0,0,1-.277,1.2A1.045,1.045,0,0,1,3573.042,1522.11Z" transform="translate(-3343.147 -1431.883)" fill="#632e2e"/>
        <path id="Path_94" data-name="Path 94" d="M3587.857,1426.76a.339.339,0,0,1-.277-.092c-1.106-.737-2.488-5.622-2.581-6.175v-.092s1.29-1.382,4.332-4.424a8.751,8.751,0,0,0,2.3-4.977h0s2.581.737,2.949,1.382v.092c1.475,3.594-5.069,12.811-6.359,14.1-.092.092-.184.184-.276.184Z" transform="translate(-3357.012 -1338.376)" fill="#d4d4d4"/>
        <path id="Path_95" data-name="Path 95" d="M3584.93,971.359a45.945,45.945,0,0,0-1.382-4.7c-.553-1.29-1.014-2.3-2.212-2.673s-5.069-6.728-5.069-6.728a38.469,38.469,0,0,0-4.884,2.581,10.047,10.047,0,0,1-1.383.737V945h1.106a11.01,11.01,0,0,1,5.346,1.106c1.106.553,1.659,1.106,2.028,1.106h.737c5.53,0,7.465,7.1,8.018,10.138a31.691,31.691,0,0,1,0,8.2h0a3.855,3.855,0,0,1-.645-.092h-.277a3.274,3.274,0,0,0-.645.092v2.489a16.708,16.708,0,0,1-.738,3.318Z" transform="translate(-3343.539 -915.324)" fill="#704c3a"/>
        <path id="Path_96" data-name="Path 96" d="M3569.092,1466.534v-9.585h0a6.582,6.582,0,0,0,4.424-2.212c4.792-4.608,8.848-15.3,10.6-20.737,10.046,2.028,11.8,8.663,13.917,20.184a23.254,23.254,0,0,1,.369,2.489,48.651,48.651,0,0,1-29.4,9.861Z" transform="translate(-3342.991 -1359.256)" fill="#467e47"/>
        <path id="Path_97" data-name="Path 97" d="M4603.7,1082H4463.331a4.332,4.332,0,0,0,0,8.663H4603.7a4.332,4.332,0,0,0,0-8.663Z" transform="translate(-4166.106 -1039.697)" fill="#f26c48"/>
        <path id="Path_98" data-name="Path 98" d="M4603.7,1315H4463.331a4.332,4.332,0,0,0,0,8.663H4603.7a4.332,4.332,0,0,0,0-8.663Z" transform="translate(-4166.106 -1251.223)" fill="#f26c48"/>
        <path id="Path_99" data-name="Path 99" d="M4603.7,1549H4463.331a4.332,4.332,0,0,0,0,8.663H4603.7a4.332,4.332,0,0,0,0-8.663Z" transform="translate(-4166.106 -1463.657)" fill="#f26c48"/>
        <path id="Path_103" data-name="Path 103" d="M4357,1736.922v29.861a5.436,5.436,0,0,0,9.216,3.871L4400.87,1736l-43.87,1.014Z" transform="translate(-4063.55 -1639.399)" fill="#d15a3b"/>
        <path id="Path_104" data-name="Path 104" d="M1247.2,2021H1109.874a50.874,50.874,0,1,0,0,101.748H1247.2a50.874,50.874,0,1,0,0-101.748Z" transform="translate(-1049.139 -1900.687)" fill="#8a6cae"/>
        <path id="Path_105" data-name="Path 105" d="M1249.974,2155.487A42.487,42.487,0,1,1,1207.487,2113,42.5,42.5,0,0,1,1249.974,2155.487Z" transform="translate(-1145.369 -1984.463)" fill="#a083bb"/>
        <path id="Path_106" data-name="Path 106" d="M1755.43,2740.977c-2.673-.093-5.069,2.488-3.318,9.032,1.843,7.1,2.857,11.981,3.41,15.115a35.473,35.473,0,0,0,6.728-3.41,83.436,83.436,0,0,1-.737-8.387c-.276-7.742-3.871-12.258-5.99-12.35Z" transform="translate(-1677.829 -2556.904)" fill="#fed493"/>
        <path id="Path_107" data-name="Path 107" d="M1390.82,2740.977c2.673-.093,5.069,2.488,3.318,9.032-1.843,7.1-2.857,11.981-3.41,15.207A41.492,41.492,0,0,1,1384,2761.9a82.9,82.9,0,0,0,.737-8.479c.276-7.741,3.871-12.257,5.991-12.35Z" transform="translate(-1344.186 -2556.906)" fill="#fed493"/>
        <path id="Path_108" data-name="Path 108" d="M1419.322,2701.092s-5.99,6.267-8.663,6.267-8.479-6.267-8.479-6.267c-7.281,0-13.179,5.622-13.179,12.442V2714a.4.4,0,0,0,.369.368c1.936.369,7.465,4.147,7.465,4.147v10.783a43.074,43.074,0,0,0,13.824,2.3,44.062,44.062,0,0,0,13.64-2.212v-10.968s5.714-3.687,7.557-4.147c.184-.093.461-.184.461-.369l.092-.461c.369-6.913-5.9-12.442-13.179-12.442Z" transform="translate(-1348.725 -2520.531)" fill="#f9a553"/>
        <path id="Path_109" data-name="Path 109" d="M1532.984,2598.11V2590H1520.45v8.11c0,1.843-2.4,2.212-3.226,2.489-.829,4.792,5.069,8.387,9.4,8.387,4.424,0,10.046-4.148,9.493-8.387-.829-.277-3.226-.553-3.226-2.489Z" transform="translate(-1465.06 -2418.956)" fill="#fed493"/>
        <path id="Path_110" data-name="Path 110" d="M1565.626,2597.756a1.369,1.369,0,0,1-.092-.645V2589H1553v5.622c1.843,2.949,4.424,4.24,8.018,4.332a8.9,8.9,0,0,0,4.516-1.2Z" transform="translate(-1497.61 -2417.881)" fill="#f4c57a"/>
        <path id="Path_111" data-name="Path 111" d="M1517.144,2381.616c-3.5-2.488-14.1-2.488-17.6,0-2.765,1.935-3.963,9.032-2.4,14.562,1.935,6.636,5.161,10.967,11.152,11.152,5.991-.092,9.216-4.516,11.152-11.152,1.567-5.53.369-12.534-2.4-14.562Z" transform="translate(-1446.27 -2227.13)" fill="#fed493"/>
        <path id="Path_112" data-name="Path 112" d="M1495.233,2332.295s4.332,3.963,4.885,5.714c.922,2.489.645,10.415.645,10.415l3.687-6.912a19.8,19.8,0,0,0,.184-6.175c-2.488-17.326-25.99-14.746-26.819,0-.092,2.212.184,6.175.184,6.175l3.5,5.991s-2.581-9.216,0-9.677c6.175-1.014,13.64-5.622,13.64-5.622Z" transform="translate(-1429.337 -2175.535)" fill="#936943"/>
        <path id="Path_113" data-name="Path 113" d="M1453.417,2440s-2.488,10.6-2.765,14.377c-.737,10.323,10.322,7.1,9.124,4.608A92.385,92.385,0,0,1,1453.417,2440Z" transform="translate(-1404.663 -2282.042)" fill="#936943"/>
        <path id="Path_114" data-name="Path 114" d="M1699.4,2439s2.489,10.6,2.765,14.377c.737,10.322-10.691,7.465-9.309,4.977a56.513,56.513,0,0,0,6.451-19.354Z" transform="translate(-1624.471 -2281.132)" fill="#936943"/>
        <path id="Path_115" data-name="Path 115" d="M1624.092,2110.184v19.446c5.991,0,12.073,3.779,13.271,11.981,0,.277.092.461.092.738a123.556,123.556,0,0,1,2.3,12.35c.369,5.622-2.765,7.281-5.622,7.281-2.12,0-3.963-1.014-3.779-2.028-.092.092-.276.185-.369.277v1.936h0c0,.184,0,.461.092.553h0c.369,1.106,1.659,1.475,2.581,1.659h0c7.281,0,13.548,5.622,13.179,12.442l-.092.461c0,.184-.184.276-.369.369a24.342,24.342,0,0,1,.184,2.673,78.865,78.865,0,0,0,.737,8.387h0A42.524,42.524,0,0,0,1624,2110Zm13.64,82.762v-9.954c.922,4.055,1.567,7,1.935,9.216C1639.023,2192.486,1638.378,2192.67,1637.732,2192.947Z" transform="translate(-1562.067 -1981.686)" fill="#9677b5"/>
        <path id="Path_116" data-name="Path 116" d="M1774.935,2861.377h0c-.369-2.212-.921-5.161-1.935-9.216v-1.014s5.714-3.687,7.557-4.147h.092a24.312,24.312,0,0,1,.184,2.673,78.9,78.9,0,0,0,.737,8.387h0a51.07,51.07,0,0,1-6.728,3.41Z" transform="translate(-1697.334 -2653.516)" fill="#e5be83"/>
        <path id="Path_117" data-name="Path 117" d="M1625,2732.69v-22.119c4.332-.277,9.677-4.24,9.124-8.387-.184-.092-.369-.092-.553-.185h0c7.281,0,13.548,5.622,13.179,12.442l-.092.46c0,.185-.184.276-.368.369h-.092c-1.843.461-7.557,4.147-7.557,4.147v10.967A42.293,42.293,0,0,1,1625,2732.6Z" transform="translate(-1562.974 -2521.446)" fill="#e6954c"/>
        <path id="Path_118" data-name="Path 118" d="M1625,2688.783v-9.125a7.44,7.44,0,0,0,1.475.092,8.9,8.9,0,0,0,4.516-1.2c.369,1.105,1.659,1.474,2.58,1.659.185.092.461.092.553.184C1634.677,2684.452,1629.332,2688.507,1625,2688.783Zm5.9-10.783Z" transform="translate(-1562.974 -2499.15)" fill="#e5be83"/>
        <path id="Path_119" data-name="Path 119" d="M1626.475,2659.779c-.461,0-1.014-.092-1.475-.092v-1.659a9.487,9.487,0,0,0,5.9-2.027v1.936h0c0,.184,0,.46.092.553h0a8.9,8.9,0,0,1-4.516,1.2Z" transform="translate(-1562.974 -2478.938)" fill="#dcb16f"/>
        <path id="Path_120" data-name="Path 120" d="M1625,2444.778V2423.12a38.637,38.637,0,0,0,3.871-2.12s4.332,3.963,4.885,5.714c.645,1.751.737,6.451.737,8.847a58.772,58.772,0,0,1-3.041,6.544.555.555,0,0,0-.092.369c-.092.092-.277.184-.369.276a9.489,9.489,0,0,1-5.9,2.028Z" transform="translate(-1562.974 -2264.732)" fill="#e5be83"/>
        <path id="Path_121" data-name="Path 121" d="M1634.493,2346.594c0-2.4-.092-7.1-.737-8.848s-4.885-5.714-4.885-5.714-1.567.922-3.871,2.12V2323c5.991,0,12.073,3.779,13.271,11.981,0,.276.092.461.092.737-.277-1.2-.461-2.028-.461-2.028A60.367,60.367,0,0,1,1634.493,2346.594Z" transform="translate(-1562.974 -2175.246)" fill="#855f3f"/>
        <path id="Path_122" data-name="Path 122" d="M1697.653,2459.843c-2.12,0-3.963-1.014-3.779-2.028,0-.092.092-.277.092-.369a51.969,51.969,0,0,0,3.042-6.544,60.365,60.365,0,0,0,3.41-12.9s.184.83.461,2.028a123.521,123.521,0,0,1,2.3,12.35c.369,5.622-2.765,7.281-5.622,7.281Z" transform="translate(-1625.49 -2280.221)" fill="#855f3f"/>
        <path id="Path_123" data-name="Path 123" d="M2485.435,2421h-81.656a3.779,3.779,0,1,0,0,7.557h81.656a3.779,3.779,0,0,0,0-7.557Z" transform="translate(-2276.138 -2264.466)" fill="#a083bb"/>
        <path id="Path_124" data-name="Path 124" d="M2485.435,2624h-81.656a3.779,3.779,0,1,0,0,7.557h81.656a3.779,3.779,0,0,0,0-7.557Z" transform="translate(-2276.138 -2449.792)" fill="#a083bb"/>
        <path id="Path_125" data-name="Path 125" d="M2485.435,2827h-81.656a3.779,3.779,0,1,0,0,7.557h81.656a3.779,3.779,0,0,0,0-7.557Z" transform="translate(-2276.138 -2635.119)" fill="#a083bb"/>
        <path id="Path_126" data-name="Path 126" d="M3257,2213.069a5.069,5.069,0,1,1,5.069,5.069A5.054,5.054,0,0,1,3257,2213.069Z" transform="translate(-3057.422 -2070.046)" fill="#a083bb"/>
        <path id="Path_127" data-name="Path 127" d="M3077,2213.069a5.069,5.069,0,1,1,5.069,5.069A5.054,5.054,0,0,1,3077,2213.069Z" transform="translate(-2893.007 -2070.046)" fill="#a083bb"/>
        <path id="Path_128" data-name="Path 128" d="M2897,2213.069a5.069,5.069,0,1,1,5.069,5.069A5.054,5.054,0,0,1,2897,2213.069Z" transform="translate(-2728.592 -2070.046)" fill="#a083bb"/>
        <path id="Path_129" data-name="Path 129" d="M2882.248,2989.922v25.99a4.687,4.687,0,0,1-8.018,3.318L2844,2989Z" transform="translate(-2680.809 -2783.542)" fill="#8a6cae"/>
        <path id="Path_130" data-name="Path 130" d="M3945.2,2672H3783.266a46.266,46.266,0,0,0,0,92.531H3945.2a46.266,46.266,0,0,0,0-92.531Z" transform="translate(-3510.648 -2495.426)" fill="#58bc79"/>
        <path id="Path_131" data-name="Path 131" d="M5071.743,3036H4960.5a3.5,3.5,0,0,0,0,7h111.241a3.5,3.5,0,1,0,0-7Z" transform="translate(-4618.209 -2825.911)" fill="#7fc685"/>
        <path id="Path_132" data-name="Path 132" d="M5071.743,3221H4960.5a3.5,3.5,0,0,0-3.5,3.5h0a3.5,3.5,0,0,0,3.5,3.5h111.241a3.5,3.5,0,0,0,3.5-3.5h0A3.5,3.5,0,0,0,5071.743,3221Z" transform="translate(-4618.209 -2994.804)" fill="#7fc685"/>
        <path id="Path_133" data-name="Path 133" d="M5071.743,3406H4960.5a3.5,3.5,0,0,0,0,7h111.241a3.5,3.5,0,1,0,0-7Z" transform="translate(-4618.209 -3163.697)" fill="#7fc685"/>
        <path id="Path_134" data-name="Path 134" d="M6138,2846.608a4.608,4.608,0,1,1,4.608,4.608A4.621,4.621,0,0,1,6138,2846.608Z" transform="translate(-5690.365 -2648.846)" fill="#7fc685"/>
        <path id="Path_135" data-name="Path 135" d="M5974,2846.608a4.608,4.608,0,1,1,4.608,4.608A4.621,4.621,0,0,1,5974,2846.608Z" transform="translate(-5541.479 -2648.846)" fill="#7fc685"/>
        <path id="Path_136" data-name="Path 136" d="M5810,2846.608a4.608,4.608,0,1,1,4.608,4.608A4.622,4.622,0,0,1,5810,2846.608Z" transform="translate(-5392.595 -2648.846)" fill="#7fc685"/>
        <path id="Path_137" data-name="Path 137" d="M4121.092,3554.738v23.686a4.282,4.282,0,0,0,7.281,3.042L4155.838,3554l-34.837.83Z" transform="translate(-3847.53 -3299.397)" fill="#58bc79"/>
        <path id="Path_138" data-name="Path 138" d="M3908.5,2803.248A38.248,38.248,0,1,1,3870.248,2765,38.272,38.272,0,0,1,3908.5,2803.248Z" transform="translate(-3585.089 -2580.005)" fill="#3da968"/>
        <path id="Path_139" data-name="Path 139" d="M4095.2,3034.092s-2.3,14.009-2.488,18.986c-.645,13.548,9.585,6.728,10.046,3.226.276-2.028-2.673-2.765-2.949-7.188-.554-6.913-4.609-15.115-4.609-15.115Z" transform="translate(-3820.745 -2824.531)" fill="#936943"/>
        <path id="Path_140" data-name="Path 140" d="M4302.418,3035s2.3,14.009,2.489,18.986c.645,13.548-9.585,6.728-10.046,3.226-.276-2.028,3.594-2.673,3.871-7.1C4299.284,3043.2,4302.418,3035,4302.418,3035Z" transform="translate(-4005.405 -2825.442)" fill="#936943"/>
        <path id="Path_141" data-name="Path 141" d="M4366.949,3332.778,4364,3320.613l4.056-11.613s5.9,3.318,5.714,13.548c-.092,2.028,0,4.516,0,6.728a35.459,35.459,0,0,1-6.728,3.41Z" transform="translate(-4068.559 -3075.553)" fill="#fecb7b"/>
        <path id="Path_142" data-name="Path 142" d="M4030.778,3332.778l2.95-12.166L4029.672,3309s-5.9,3.318-5.714,13.548c.092,2.028,0,4.516,0,6.728a35.448,35.448,0,0,0,6.728,3.41Z" transform="translate(-3757.957 -3075.553)" fill="#fecb7b"/>
        <path id="Path_143" data-name="Path 143" d="M4109.041,3294h-16.5a21.86,21.86,0,0,0-6.543,1.474,93.325,93.325,0,0,1,1.29,11.152v12.626a38.849,38.849,0,0,0,13.548,2.489,36.852,36.852,0,0,0,13.548-2.489v-12.626a93.325,93.325,0,0,1,1.29-11.152,22.515,22.515,0,0,0-6.543-1.474Z" transform="translate(-3815.352 -3061.958)" fill="#fefefe"/>
        <path id="Path_144" data-name="Path 144" d="M4169.1,3202.281V3195h-11.244v7.281c0,1.659-2.12,1.935-2.857,2.212a10.218,10.218,0,0,0,16.958,0C4171.221,3204.216,4169.1,3203.94,4169.1,3202.281Z" transform="translate(-3877.915 -2971.23)" fill="#fecb7b"/>
        <path id="Path_145" data-name="Path 145" d="M4197.336,3202.834a1.162,1.162,0,0,1-.093-.553V3195H4186v5.069c1.659,2.673,3.962,3.779,7.188,3.871a8.042,8.042,0,0,0,4.055-1.106Z" transform="translate(-3906.028 -2971.112)" fill="#ebb361"/>
        <path id="Path_146" data-name="Path 146" d="M4157.078,3007.659c-3.042-2.212-12.166-2.212-15.207,0-2.4,1.751-3.41,8.11-2.028,13.087,1.659,5.99,4.424,9.861,9.585,9.954,5.161-.093,7.926-4.055,9.585-9.954,1.383-4.977.368-11.336-2.027-13.087Z" transform="translate(-3863.626 -2798.909)" fill="#fecb7b"/>
        <path id="Path_147" data-name="Path 147" d="M4123.529,2943.309a109.547,109.547,0,0,0,10.322,3.871c2.4.646,3.871.646,4.977,1.844.829,1.014.369,9.493.369,9.493l2.949-5.253a58.855,58.855,0,0,0-.184-8.663c-2.3-15.575-23.317-13.179-24.147,0-.092,1.936.185,5.622.185,5.622l2.3,8.663s-.645-10.138.922-11.889A11.159,11.159,0,0,0,4123.529,2943.309Z" transform="translate(-3844.204 -2732.989)" fill="#936943"/>
        <path id="Path_148" data-name="Path 148" d="M4260.548,2839.007v-1.014l.185.922A.324.324,0,0,0,4260.548,2839.007Zm6.913-3.5c0-2.3-.092-4.7,0-6.82.276-10.23-5.714-13.548-5.714-13.548h0a7.635,7.635,0,0,0-1.105-.369,12.881,12.881,0,0,0,.737-5.9c-.184-3.687-1.474-12.442-2.119-16.681,0-.277-.092-.646-.092-.83-.093-.461-.185-.921-.277-1.29v-.184h0a11.608,11.608,0,0,0-11.613-9.309H4247V2765a38.21,38.21,0,0,1,20.46,70.5Zm-13.548-26.911c.093-.184.277-.369.369-.553C4254.189,2808.225,4254,2808.409,4253.912,2808.593Z" transform="translate(-3962.796 -2579.944)" fill="#38975f"/>
        <path id="Path_149" data-name="Path 149" d="M4316.019,3059.976a20.382,20.382,0,0,0-5.438-1.106h-.829a2.748,2.748,0,0,1-1.659-1.383h0a1.173,1.173,0,0,1-.092-.553h0v-1.843a6.2,6.2,0,0,0,1.29-1.383c.092-.184.277-.369.369-.553a15.891,15.891,0,0,0,2.212-4.7c0,1.106-.092,1.935-.092,1.935l2.949-5.253a75.812,75.812,0,0,0-.092-7.742c.646,4.24,1.936,12.9,2.12,16.682A13.794,13.794,0,0,1,4316.019,3059.976Zm-1.659-24.792V3035h0Z" transform="translate(-4017.37 -2825.395)" fill="#855f3f"/>
        <path id="Path_150" data-name="Path 150" d="M4394.185,3333.686h0l-.184-.922v-11.613a93.286,93.286,0,0,1,1.291-11.152h0s5.9,3.317,5.714,13.548c-.092,2.028,0,4.516,0,6.82h0a35.515,35.515,0,0,1-6.728,3.41Z" transform="translate(-4095.856 -3076.466)" fill="#e5b76f"/>
        <path id="Path_151" data-name="Path 151" d="M4246.093,3321.741v-22.857h0a10.187,10.187,0,0,0,8.479-4.516c-.277-.092-.645-.184-1.106-.369h.829a20.379,20.379,0,0,1,5.438,1.106c.369.092.738.277,1.106.368h0a93.292,93.292,0,0,0-1.291,11.152v12.626h0a38.845,38.845,0,0,1-13.548,2.489Z" transform="translate(-3960.963 -3061.958)" fill="#e5e6e5"/>
        <path id="Path_152" data-name="Path 152" d="M4247,3286.175h0v-5.253c.553.092,1.013.092,1.659.184a8.044,8.044,0,0,0,4.055-1.106,2.744,2.744,0,0,0,1.659,1.382c.461.185.921.276,1.105.369a10.187,10.187,0,0,1-8.479,4.516Z" transform="translate(-3961.643 -3048.65)" fill="#e5b76f"/>
        <path id="Path_153" data-name="Path 153" d="M4248.659,3256.594a10.16,10.16,0,0,1-1.659-.184v-1.383h.369a7.891,7.891,0,0,0,5.253-2.027v1.843h0a1.168,1.168,0,0,0,.092.553h0a8.311,8.311,0,0,1-4.055,1.106Z" transform="translate(-3961.542 -3023.939)" fill="#d3a158"/>
        <path id="Path_154" data-name="Path 154" d="M4246.369,3084.354H4246V3065c1.475.553,2.949,1.014,4.147,1.382,2.4.645,3.871.645,4.977,1.843.645.645.553,4.977.461,7.557a18.582,18.582,0,0,1-2.212,4.7c-.092.184-.277.369-.369.553a17.664,17.664,0,0,1-1.29,1.382,8.379,8.379,0,0,1-5.253,2.028Z" transform="translate(-3960.771 -2852.661)" fill="#e5b76f"/>
        <path id="Path_155" data-name="Path 155" d="M4255.493,2959.7s.092-.83.092-1.935c.092-2.581.184-6.913-.461-7.557-1.014-1.2-2.581-1.2-4.977-1.844a36.3,36.3,0,0,1-4.147-1.382V2935h.277a11.564,11.564,0,0,1,11.612,9.309v.184c.092.46.184.829.276,1.29,0,.277.093.553.093.83a76.209,76.209,0,0,1,.092,7.741l-2.95,5.253Z" transform="translate(-3960.873 -2734.079)" fill="#855f3f"/>
        <path id="Path_156" data-name="Path 156" d="M2839.069,5672.534A12.534,12.534,0,1,1,2826.534,5660,12.547,12.547,0,0,1,2839.069,5672.534Z" transform="translate(-2653.098 -5222.283)" fill="#b0dfe4"/>
        <path id="Path_157" data-name="Path 157" d="M1340.875,4434.53a5.528,5.528,0,0,1-5.438,5.53,5.468,5.468,0,0,1-5.438-5.53,5.527,5.527,0,0,1,5.438-5.53A5.468,5.468,0,0,1,1340.875,4434.53Z" transform="translate(-1295.162 -4097.768)" fill="#b0dfe4"/>
        <path id="Path_158" data-name="Path 158" d="M5122.059,3810.53a5.53,5.53,0,1,1-5.53-5.53A5.546,5.546,0,0,1,5122.059,3810.53Z" transform="translate(-4750.936 -3528.073)" fill="#b0dfe4"/>
        <path id="Path_159" data-name="Path 159" d="M2519.488,998.244A11.244,11.244,0,1,1,2508.244,987,11.289,11.289,0,0,1,2519.488,998.244Z" transform="translate(-2363.444 -953.453)" fill="#b0dfe4"/>
        <path id="Path_160" data-name="Path 160" d="M1241.594,3325.889A11.8,11.8,0,1,1,1229.8,3314,11.9,11.9,0,0,1,1241.594,3325.889Z" transform="translate(-1193.485 -3080.119)" fill="#b0dfe4"/>
        <path id="Path_161" data-name="Path 161" d="M1602.686,3325.889a11.843,11.843,0,1,1-11.8-11.889A11.9,11.9,0,0,1,1602.686,3325.889Z" transform="translate(-1521.214 -3080.119)" fill="#b0dfe4"/>
        <path id="Path_162" data-name="Path 162" d="M1965.686,3325.889A11.843,11.843,0,1,1,1953.8,3314,11.918,11.918,0,0,1,1965.686,3325.889Z" transform="translate(-1856.434 -3080.119)" fill="#b0dfe4"/>
        <path id="Path_163" data-name="Path 163" d="M2465.653,1707h-47.28a7.373,7.373,0,1,0,0,14.746h47.28a7.373,7.373,0,1,0,0-14.746Z" transform="translate(-2285.613 -1607.095)" fill="#b0dfe4"/>
        <path id="Path_164" data-name="Path 164" d="M2168.746,1714.373a7.373,7.373,0,1,1-7.373-7.373A7.395,7.395,0,0,1,2168.746,1714.373Z" transform="translate(-2049.988 -1607.095)" fill="#b0dfe4"/>
        <path id="Path_165" data-name="Path 165" d="M3803.438,2372.875h34.838a5.438,5.438,0,0,0,0-10.875h-34.838a5.438,5.438,0,0,0,0,10.875Z" transform="translate(-3552.792 -2210.653)" fill="#b0dfe4"/>
        <path id="Path_166" data-name="Path 166" d="M4365,2367.438a5.438,5.438,0,1,1,5.438,5.438A5.389,5.389,0,0,1,4365,2367.438Z" transform="translate(-4069.513 -2210.653)" fill="#b0dfe4"/>
        <path id="Path_167" data-name="Path 167" d="M3516.438,5781.875h34.838a5.438,5.438,0,1,0,0-10.875h-34.838a5.438,5.438,0,0,0,0,10.875Z" transform="translate(-3290.521 -5328.385)" fill="#b0dfe4"/>
        <path id="Path_168" data-name="Path 168" d="M4078,5776.438a5.438,5.438,0,1,1,5.438,5.437A5.39,5.39,0,0,1,4078,5776.438Z" transform="translate(-3807.362 -5328.385)" fill="#b0dfe4"/>
        <path id="Path_169" data-name="Path 169" d="M5239.756,4055.511h36.773a8.756,8.756,0,0,0,0-17.511h-36.773a8.756,8.756,0,0,0,0,17.511Z" transform="translate(-4866.957 -3740.995)" fill="#b0dfe4"/>
        <path id="Path_170" data-name="Path 170" d="M5934,4046.756a8.756,8.756,0,1,1,8.756,8.756A8.752,8.752,0,0,1,5934,4046.756Z" transform="translate(-5505.166 -3740.995)" fill="#b0dfe4"/>
        <path id="Path_171" data-name="Path 171" d="M4663.172,2059.234l-3.963,3.963a6.954,6.954,0,0,1-9.77,0l-3.963-3.963a6.015,6.015,0,0,0-8.294-.277,5.761,5.761,0,0,0-.092,8.295l4.148,4.147a6.956,6.956,0,0,1,0,9.77l-3.964,3.963a6.017,6.017,0,0,0-.276,8.295,5.76,5.76,0,0,0,8.294.092l4.147-4.147a6.954,6.954,0,0,1,9.77,0l3.963,3.963a6.016,6.016,0,0,0,8.294.277,5.761,5.761,0,0,0,.092-8.3l-4.148-4.147a6.956,6.956,0,0,1,0-9.77l4.148-4.147a5.76,5.76,0,0,0-.092-8.295A6.021,6.021,0,0,0,4663.172,2059.234Z" transform="translate(-4317.654 -1932.954)" fill="#b0dfe4"/>
        <path id="Path_172" data-name="Path 172" d="M1261.385,3947.561h-3.226a3.934,3.934,0,0,1-3.963-3.963v-3.225a3.319,3.319,0,1,0-6.636-.092v3.317a3.934,3.934,0,0,1-3.963,3.963h-3.226a3.319,3.319,0,1,0-.092,6.636h3.318a3.934,3.934,0,0,1,3.963,3.963v3.226a3.319,3.319,0,1,0,6.636.092v-3.318a3.934,3.934,0,0,1,3.963-3.963h3.318a3.324,3.324,0,0,0,3.318-3.41A3.427,3.427,0,0,0,1261.385,3947.561Z" transform="translate(-1210.695 -3649.062)" fill="#b0dfe4"/>
        <path id="Path_194" data-name="Path 194" d="M3407,6646Z" transform="translate(-3194.163 -6122.742)" fill="#8ec8c7"/>
        <path id="Path_195" data-name="Path 195" d="M3407.092,6647.553h0c0-.185-.092-.369-.092-.553C3407,6647.184,3407.092,6647.368,3407.092,6647.553Z" transform="translate(-3194.165 -6123.65)" fill="#8ec8c7"/>
        <path id="Path_196" data-name="Path 196" d="M3415,6674Z" transform="translate(-3201.469 -6148.161)" fill="#8ec8c7"/>
        <path id="Path_197" data-name="Path 197" d="M3414,6671.093v0Z" transform="translate(-3200.555 -6145.438)" fill="#8ec8c7"/>
        <path id="Path_198" data-name="Path 198" d="M3410,6661a3.84,3.84,0,0,0,.369.921A3.84,3.84,0,0,1,3410,6661Z" transform="translate(-3196.912 -6136.36)" fill="#8ec8c7"/>
      </g>
    </g>
  </g>
</svg>
